<svg width="306" height="154" viewBox="0 0 306 154" fill="none" xmlns="http://www.w3.org/2000/svg">
<path d="M3.81563 108.2C2.21563 107.133 1.41563 105.8 1.41563 104.2C1.41563 102.467 2.21563 101.067 3.81563 100L62.0156 63C62.8156 62.6 63.749 62.4 64.8156 62.4C65.8823 62.4 66.8823 63.2 67.8156 64.8C68.8823 66.2667 69.4156 67.6 69.4156 68.8C69.4156 69.8667 68.8156 70.7333 67.6156 71.4L15.0156 104L67.6156 136.6C68.8156 137.267 69.4156 138.2 69.4156 139.4C69.4156 140.467 68.8823 141.8 67.8156 143.4C66.8823 144.867 65.8823 145.6 64.8156 145.6C63.749 145.6 62.8156 145.4 62.0156 145L3.81563 108.2ZM78.1438 76.2H88.3438C96.7438 76.2 101.077 80.7333 101.344 89.8C108.544 79.4 117.077 74.2 126.944 74.2C132.544 74.2 137.277 75.2667 141.144 77.4C143.01 78.4667 143.944 79.8667 143.944 81.6V98.4C143.944 99.7333 143.41 100.867 142.344 101.8C141.277 102.6 140.01 103 138.544 103C137.077 103 135.81 102.6 134.744 101.8C133.677 100.867 133.144 99.7333 133.144 98.4V84.4C131.41 83.7333 128.81 83.4 125.344 83.4C121.877 83.4 117.944 85.0667 113.544 88.4C109.144 91.6 105.344 96.4 102.144 102.8V148.4C102.144 149.733 101.61 150.8 100.544 151.6C99.4771 152.533 98.2104 153 96.7438 153C95.2771 153 94.0104 152.533 92.9438 151.6C91.8771 150.8 91.3438 149.733 91.3438 148.4V89.4C91.3438 86.8667 90.0104 85.6 87.3438 85.6H78.1438C76.8104 85.6 75.6771 85.2 74.7438 84.4C73.9438 83.4667 73.5438 82.3333 73.5438 81C73.5438 79.6667 73.9438 78.5333 74.7438 77.6C75.6771 76.6667 76.8104 76.2 78.1438 76.2ZM162.739 131.8C171.539 139.8 180.072 143.8 188.339 143.8C196.739 143.8 203.206 141 207.739 135.4C212.272 129.8 214.539 122.4 214.539 113.2C214.539 104 212.272 96.7333 207.739 91.4C203.339 86.0667 197.272 83.4 189.539 83.4C178.606 83.4 169.672 89.6 162.739 102V131.8ZM151.939 10.4H138.739C137.406 10.4 136.339 10 135.539 9.19999C134.606 8.26666 134.139 7.13333 134.139 5.8C134.139 4.46666 134.606 3.33332 135.539 2.39999C136.339 1.46666 137.406 0.999988 138.739 0.999988H157.339C158.672 0.999988 159.872 1.46666 160.939 2.39999C162.139 3.33332 162.739 4.46666 162.739 5.8V89.4C169.539 79.2667 178.606 74.2 189.939 74.2C201.272 74.2 209.939 77.8 215.939 85C222.072 92.2 225.139 101.667 225.139 113.4C225.139 125.133 222.006 134.667 215.739 142C209.472 149.333 201.139 153 190.739 153C180.339 153 171.006 149.2 162.739 141.6V148.4C162.739 149.733 162.206 150.8 161.139 151.6C160.072 152.533 158.806 153 157.339 153C155.872 153 154.606 152.533 153.539 151.6C152.472 150.8 151.939 149.733 151.939 148.4V10.4ZM243.856 145C243.056 145.4 242.123 145.6 241.056 145.6C239.99 145.6 238.923 144.867 237.856 143.4C236.923 141.8 236.456 140.467 236.456 139.4C236.456 138.2 237.056 137.267 238.256 136.6L290.856 104L238.256 71.4C237.056 70.7333 236.456 69.8667 236.456 68.8C236.456 67.6 236.923 66.2667 237.856 64.8C238.923 63.2 239.99 62.4 241.056 62.4C242.123 62.4 243.056 62.6 243.856 63L302.056 100C303.656 101.067 304.456 102.467 304.456 104.2C304.456 105.8 303.656 107.133 302.056 108.2L243.856 145Z" fill="#8A25B1" fill-opacity="0.2"/>
<path d="M3.81563 108.2C2.21563 107.133 1.41563 105.8 1.41563 104.2C1.41563 102.467 2.21563 101.067 3.81563 100L62.0156 63C62.8156 62.6 63.749 62.4 64.8156 62.4C65.8823 62.4 66.8823 63.2 67.8156 64.8C68.8823 66.2667 69.4156 67.6 69.4156 68.8C69.4156 69.8667 68.8156 70.7333 67.6156 71.4L15.0156 104L67.6156 136.6C68.8156 137.267 69.4156 138.2 69.4156 139.4C69.4156 140.467 68.8823 141.8 67.8156 143.4C66.8823 144.867 65.8823 145.6 64.8156 145.6C63.749 145.6 62.8156 145.4 62.0156 145L3.81563 108.2ZM78.1438 76.2H88.3438C96.7438 76.2 101.077 80.7333 101.344 89.8C108.544 79.4 117.077 74.2 126.944 74.2C132.544 74.2 137.277 75.2667 141.144 77.4C143.01 78.4667 143.944 79.8667 143.944 81.6V98.4C143.944 99.7333 143.41 100.867 142.344 101.8C141.277 102.6 140.01 103 138.544 103C137.077 103 135.81 102.6 134.744 101.8C133.677 100.867 133.144 99.7333 133.144 98.4V84.4C131.41 83.7333 128.81 83.4 125.344 83.4C121.877 83.4 117.944 85.0667 113.544 88.4C109.144 91.6 105.344 96.4 102.144 102.8V148.4C102.144 149.733 101.61 150.8 100.544 151.6C99.4771 152.533 98.2104 153 96.7438 153C95.2771 153 94.0104 152.533 92.9438 151.6C91.8771 150.8 91.3438 149.733 91.3438 148.4V89.4C91.3438 86.8667 90.0104 85.6 87.3438 85.6H78.1438C76.8104 85.6 75.6771 85.2 74.7438 84.4C73.9438 83.4667 73.5438 82.3333 73.5438 81C73.5438 79.6667 73.9438 78.5333 74.7438 77.6C75.6771 76.6667 76.8104 76.2 78.1438 76.2ZM162.739 131.8C171.539 139.8 180.072 143.8 188.339 143.8C196.739 143.8 203.206 141 207.739 135.4C212.272 129.8 214.539 122.4 214.539 113.2C214.539 104 212.272 96.7333 207.739 91.4C203.339 86.0667 197.272 83.4 189.539 83.4C178.606 83.4 169.672 89.6 162.739 102V131.8ZM151.939 10.4H138.739C137.406 10.4 136.339 10 135.539 9.19999C134.606 8.26666 134.139 7.13333 134.139 5.8C134.139 4.46666 134.606 3.33332 135.539 2.39999C136.339 1.46666 137.406 0.999988 138.739 0.999988H157.339C158.672 0.999988 159.872 1.46666 160.939 2.39999C162.139 3.33332 162.739 4.46666 162.739 5.8V89.4C169.539 79.2667 178.606 74.2 189.939 74.2C201.272 74.2 209.939 77.8 215.939 85C222.072 92.2 225.139 101.667 225.139 113.4C225.139 125.133 222.006 134.667 215.739 142C209.472 149.333 201.139 153 190.739 153C180.339 153 171.006 149.2 162.739 141.6V148.4C162.739 149.733 162.206 150.8 161.139 151.6C160.072 152.533 158.806 153 157.339 153C155.872 153 154.606 152.533 153.539 151.6C152.472 150.8 151.939 149.733 151.939 148.4V10.4ZM243.856 145C243.056 145.4 242.123 145.6 241.056 145.6C239.99 145.6 238.923 144.867 237.856 143.4C236.923 141.8 236.456 140.467 236.456 139.4C236.456 138.2 237.056 137.267 238.256 136.6L290.856 104L238.256 71.4C237.056 70.7333 236.456 69.8667 236.456 68.8C236.456 67.6 236.923 66.2667 237.856 64.8C238.923 63.2 239.99 62.4 241.056 62.4C242.123 62.4 243.056 62.6 243.856 63L302.056 100C303.656 101.067 304.456 102.467 304.456 104.2C304.456 105.8 303.656 107.133 302.056 108.2L243.856 145Z" fill="url(#paint0_linear)"/>
<path d="M3.81563 108.2L3.26093 109.032L3.27098 109.039L3.2812 109.045L3.81563 108.2ZM3.81563 100L3.27913 99.1561L3.26996 99.1619L3.26092 99.1679L3.81563 100ZM62.0156 63L61.5684 62.1056L61.5225 62.1285L61.4791 62.1561L62.0156 63ZM67.8156 64.8L66.9519 65.3039L66.9772 65.3474L67.0069 65.3882L67.8156 64.8ZM67.6156 71.4L67.13 70.5258L67.1091 70.5374L67.0888 70.55L67.6156 71.4ZM15.0156 104L14.4888 103.15L13.1174 104L14.4888 104.85L15.0156 104ZM67.6156 136.6L67.0888 137.45L67.1091 137.463L67.13 137.474L67.6156 136.6ZM67.8156 143.4L66.9836 142.845L66.9777 142.854L66.972 142.863L67.8156 143.4ZM62.0156 145L61.4812 145.845L61.5236 145.872L61.5684 145.894L62.0156 145ZM4.37033 107.368C2.98404 106.444 2.41563 105.395 2.41563 104.2H0.415625C0.415625 106.205 1.44721 107.823 3.26093 109.032L4.37033 107.368ZM2.41563 104.2C2.41563 102.842 3.01271 101.737 4.37033 100.832L3.26092 99.1679C1.41854 100.396 0.415625 102.091 0.415625 104.2H2.41563ZM4.35213 100.844L62.5521 63.8439L61.4791 62.1561L3.27913 99.1561L4.35213 100.844ZM62.4628 63.8944C63.0997 63.576 63.8746 63.4 64.8156 63.4V61.4C63.6234 61.4 62.5316 61.624 61.5684 62.1056L62.4628 63.8944ZM64.8156 63.4C65.3231 63.4 66.0635 63.781 66.9519 65.3039L68.6794 64.2961C67.7011 62.619 66.4415 61.4 64.8156 61.4V63.4ZM67.0069 65.3882C68.0093 66.7664 68.4156 67.8945 68.4156 68.8H70.4156C70.4156 67.3055 69.7553 65.7669 68.6244 64.2118L67.0069 65.3882ZM68.4156 68.8C68.4156 69.3967 68.1183 69.9768 67.13 70.5258L68.1013 72.2742C69.5129 71.4899 70.4156 70.3366 70.4156 68.8H68.4156ZM67.0888 70.55L14.4888 103.15L15.5424 104.85L68.1424 72.25L67.0888 70.55ZM14.4888 104.85L67.0888 137.45L68.1424 135.75L15.5424 103.15L14.4888 104.85ZM67.13 137.474C68.0677 137.995 68.4156 138.622 68.4156 139.4H70.4156C70.4156 137.778 69.5636 136.538 68.1013 135.726L67.13 137.474ZM68.4156 139.4C68.4156 140.166 68.017 141.295 66.9836 142.845L68.6477 143.955C69.7475 142.305 70.4156 140.767 70.4156 139.4H68.4156ZM66.972 142.863C66.1031 144.229 65.3658 144.6 64.8156 144.6V146.6C66.3988 146.6 67.6615 145.505 68.6593 143.937L66.972 142.863ZM64.8156 144.6C63.8746 144.6 63.0997 144.424 62.4628 144.106L61.5684 145.894C62.5316 146.376 63.6234 146.6 64.8156 146.6V144.6ZM62.5501 144.155L4.35006 107.355L3.2812 109.045L61.4812 145.845L62.5501 144.155ZM101.344 89.8L100.344 89.8294L100.434 92.8714L102.166 90.3692L101.344 89.8ZM141.144 77.4L141.64 76.5318L141.633 76.528L141.627 76.5244L141.144 77.4ZM142.344 101.8L142.944 102.6L142.974 102.577L143.002 102.553L142.344 101.8ZM134.744 101.8L134.085 102.553L134.114 102.577L134.144 102.6L134.744 101.8ZM133.144 84.4H134.144V83.7132L133.503 83.4667L133.144 84.4ZM113.544 88.4L114.132 89.2087L114.14 89.203L114.148 89.1971L113.544 88.4ZM102.144 102.8L101.249 102.353L101.144 102.564V102.8H102.144ZM100.544 151.6L99.9438 150.8L99.9136 150.823L99.8852 150.847L100.544 151.6ZM92.9438 151.6L93.6023 150.847L93.5739 150.823L93.5438 150.8L92.9438 151.6ZM74.7438 84.4L73.9845 85.0508L74.0346 85.1092L74.093 85.1593L74.7438 84.4ZM74.7438 77.6L74.0366 76.8929L74.0095 76.92L73.9845 76.9492L74.7438 77.6ZM78.1438 77.2H88.3438V75.2H78.1438V77.2ZM88.3438 77.2C92.367 77.2 95.2504 78.2819 97.1709 80.291C99.104 82.3133 100.215 85.4343 100.344 89.8294L102.343 89.7706C102.206 85.099 101.017 81.42 98.6166 78.909C96.2038 76.3848 92.7205 75.2 88.3438 75.2V77.2ZM102.166 90.3692C109.238 80.1541 117.496 75.2 126.944 75.2V73.2C116.658 73.2 107.85 78.6459 100.522 89.2308L102.166 90.3692ZM126.944 75.2C132.419 75.2 136.976 76.2429 140.661 78.2756L141.627 76.5244C137.578 74.2904 132.668 73.2 126.944 73.2V75.2ZM140.648 78.2682C142.29 79.2069 142.944 80.3162 142.944 81.6H144.944C144.944 79.4172 143.731 77.7264 141.64 76.5318L140.648 78.2682ZM142.944 81.6V98.4H144.944V81.6H142.944ZM142.944 98.4C142.944 99.425 142.55 100.29 141.685 101.047L143.002 102.553C144.27 101.443 144.944 100.042 144.944 98.4H142.944ZM141.744 101C140.868 101.657 139.817 102 138.544 102V104C140.204 104 141.687 103.543 142.944 102.6L141.744 101ZM138.544 102C137.271 102 136.22 101.657 135.344 101L134.144 102.6C135.401 103.543 136.884 104 138.544 104V102ZM135.402 101.047C134.537 100.29 134.144 99.425 134.144 98.4H132.144C132.144 100.042 132.817 101.443 134.085 102.553L135.402 101.047ZM134.144 98.4V84.4H132.144V98.4H134.144ZM133.503 83.4667C131.595 82.7328 128.846 82.4 125.344 82.4V84.4C128.775 84.4 131.226 84.7339 132.785 85.3333L133.503 83.4667ZM125.344 82.4C121.564 82.4 117.418 84.2104 112.94 87.6029L114.148 89.1971C118.469 85.923 122.191 84.4 125.344 84.4V82.4ZM112.956 87.5913C108.392 90.9105 104.499 95.853 101.249 102.353L103.038 103.247C106.188 96.947 109.896 92.2895 114.132 89.2087L112.956 87.5913ZM101.144 102.8V148.4H103.144V102.8H101.144ZM101.144 148.4C101.144 149.419 100.759 150.189 99.9438 150.8L101.144 152.4C102.462 151.411 103.144 150.048 103.144 148.4H101.144ZM99.8852 150.847C99.0077 151.615 97.9774 152 96.7438 152V154C98.4434 154 99.9465 153.451 101.202 152.353L99.8852 150.847ZM96.7438 152C95.5101 152 94.4798 151.615 93.6023 150.847L92.2852 152.353C93.541 153.451 95.0441 154 96.7438 154V152ZM93.5438 150.8C92.7289 150.189 92.3438 149.419 92.3438 148.4H90.3438C90.3438 150.048 91.0253 151.411 92.3438 152.4L93.5438 150.8ZM92.3438 148.4V89.4H90.3438V148.4H92.3438ZM92.3438 89.4C92.3438 87.9657 91.9638 86.7097 91.0325 85.825C90.1108 84.9494 88.8188 84.6 87.3438 84.6V86.6C88.5354 86.6 89.2433 86.8839 89.655 87.275C90.0571 87.657 90.3438 88.3009 90.3438 89.4H92.3438ZM87.3438 84.6H78.1438V86.6H87.3438V84.6ZM78.1438 84.6C77.0273 84.6 76.1307 84.2718 75.3945 83.6407L74.093 85.1593C75.2234 86.1282 76.5935 86.6 78.1438 86.6V84.6ZM75.503 83.7492C74.872 83.013 74.5438 82.1164 74.5438 81H72.5438C72.5438 82.5503 73.0155 83.9203 73.9845 85.0508L75.503 83.7492ZM74.5438 81C74.5438 79.8836 74.872 78.987 75.503 78.2508L73.9845 76.9492C73.0155 78.0797 72.5438 79.4497 72.5438 81H74.5438ZM75.4509 78.3071C76.1945 77.5634 77.0726 77.2 78.1438 77.2V75.2C76.5482 75.2 75.1596 75.7699 74.0366 76.8929L75.4509 78.3071ZM162.739 131.8H161.739V132.242L162.066 132.54L162.739 131.8ZM207.739 135.4L208.516 136.029L208.516 136.029L207.739 135.4ZM207.739 91.4L206.968 92.0364L206.972 92.042L206.977 92.0476L207.739 91.4ZM162.739 102L161.866 101.512L161.739 101.739V102H162.739ZM151.939 10.4H152.939V9.4H151.939V10.4ZM135.539 9.19999L136.246 8.49289L136.246 8.49288L135.539 9.19999ZM135.539 2.39999L136.246 3.1071L136.273 3.07994L136.298 3.05078L135.539 2.39999ZM160.939 2.39999L160.281 3.15257L160.302 3.1716L160.325 3.18935L160.939 2.39999ZM162.739 89.4H161.739V92.6848L163.569 89.9572L162.739 89.4ZM215.939 85L215.171 85.6402L215.178 85.6485L215.939 85ZM215.739 142L214.979 141.35L214.979 141.35L215.739 142ZM162.739 141.6L163.416 140.864L161.739 139.322V141.6H162.739ZM161.139 151.6L160.539 150.8L160.509 150.823L160.481 150.847L161.139 151.6ZM153.539 151.6L154.198 150.847L154.169 150.823L154.139 150.8L153.539 151.6ZM162.066 132.54C170.97 140.635 179.733 144.8 188.339 144.8V142.8C180.411 142.8 172.108 138.965 163.412 131.06L162.066 132.54ZM188.339 144.8C196.985 144.8 203.76 141.904 208.516 136.029L206.962 134.771C202.651 140.096 196.493 142.8 188.339 142.8V144.8ZM208.516 136.029C213.23 130.207 215.539 122.565 215.539 113.2H213.539C213.539 122.235 211.315 129.393 206.962 134.771L208.516 136.029ZM215.539 113.2C215.539 103.838 213.231 96.3168 208.501 90.7523L206.977 92.0476C211.314 97.1499 213.539 104.162 213.539 113.2H215.539ZM208.51 90.7636C203.896 85.1709 197.531 82.4 189.539 82.4V84.4C197.014 84.4 202.782 86.9624 206.968 92.0364L208.51 90.7636ZM189.539 82.4C178.133 82.4 168.915 88.9053 161.866 101.512L163.612 102.488C170.43 90.2947 179.078 84.4 189.539 84.4V82.4ZM161.739 102V131.8H163.739V102H161.739ZM151.939 9.4H138.739V11.4H151.939V9.4ZM138.739 9.4C137.62 9.4 136.825 9.07215 136.246 8.49289L134.832 9.90709C135.853 10.9278 137.191 11.4 138.739 11.4V9.4ZM136.246 8.49288C135.503 7.74922 135.139 6.87114 135.139 5.8H133.139C133.139 7.39552 133.709 8.7841 134.832 9.9071L136.246 8.49288ZM135.139 5.8C135.139 4.72885 135.503 3.85076 136.246 3.1071L134.832 1.69289C133.709 2.81588 133.139 4.20447 133.139 5.8H135.139ZM136.298 3.05078C136.891 2.35948 137.67 1.99999 138.739 1.99999V-1.19209e-05C137.142 -1.19209e-05 135.787 0.573835 134.78 1.7492L136.298 3.05078ZM138.739 1.99999H157.339V-1.19209e-05H138.739V1.99999ZM157.339 1.99999C158.414 1.99999 159.384 2.36781 160.281 3.15257L161.598 1.64742C160.361 0.565504 158.931 -1.19209e-05 157.339 -1.19209e-05V1.99999ZM160.325 3.18935C161.32 3.96335 161.739 4.82121 161.739 5.8H163.739C163.739 4.1121 162.958 2.7033 161.553 1.61064L160.325 3.18935ZM161.739 5.8V89.4H163.739V5.8H161.739ZM163.569 89.9572C170.201 80.0754 178.968 75.2 189.939 75.2V73.2C178.243 73.2 168.878 78.4579 161.909 88.8428L163.569 89.9572ZM189.939 75.2C201.044 75.2 209.401 78.7159 215.171 85.6402L216.707 84.3598C210.477 76.8841 201.501 73.2 189.939 73.2V75.2ZM215.178 85.6485C221.123 92.6271 224.139 101.845 224.139 113.4H226.139C226.139 101.488 223.022 91.7729 216.7 84.3515L215.178 85.6485ZM224.139 113.4C224.139 124.949 221.059 134.235 214.979 141.35L216.499 142.65C222.952 135.098 226.139 125.318 226.139 113.4H224.139ZM214.979 141.35C208.918 148.442 200.873 152 190.739 152V154C201.406 154 210.026 150.224 216.499 142.65L214.979 141.35ZM190.739 152C180.611 152 171.514 148.309 163.416 140.864L162.062 142.336C170.497 150.091 180.067 154 190.739 154V152ZM161.739 141.6V148.4H163.739V141.6H161.739ZM161.739 148.4C161.739 149.419 161.354 150.189 160.539 150.8L161.739 152.4C163.058 151.411 163.739 150.048 163.739 148.4H161.739ZM160.481 150.847C159.603 151.615 158.573 152 157.339 152V154C159.039 154 160.542 153.451 161.798 152.353L160.481 150.847ZM157.339 152C156.105 152 155.075 151.615 154.198 150.847L152.881 152.353C154.136 153.451 155.639 154 157.339 154V152ZM154.139 150.8C153.324 150.189 152.939 149.419 152.939 148.4H150.939C150.939 150.048 151.621 151.411 152.939 152.4L154.139 150.8ZM152.939 148.4V10.4H150.939V148.4H152.939ZM243.856 145L244.303 145.894L244.348 145.872L244.391 145.845L243.856 145ZM237.856 143.4L236.992 143.904L237.018 143.947L237.048 143.988L237.856 143.4ZM238.256 136.6L238.742 137.474L238.763 137.463L238.783 137.45L238.256 136.6ZM290.856 104L291.383 104.85L292.755 104L291.383 103.15L290.856 104ZM238.256 71.4L238.783 70.55L238.763 70.5374L238.742 70.5258L238.256 71.4ZM237.856 64.8L237.024 64.2453L237.018 64.2541L237.013 64.2631L237.856 64.8ZM243.856 63L244.393 62.1561L244.349 62.1285L244.303 62.1056L243.856 63ZM302.056 100L302.611 99.1679L302.602 99.1619L302.593 99.1561L302.056 100ZM302.056 108.2L302.591 109.045L302.601 109.039L302.611 109.032L302.056 108.2ZM243.409 144.106C242.772 144.424 241.997 144.6 241.056 144.6V146.6C242.249 146.6 243.34 146.376 244.303 145.894L243.409 144.106ZM241.056 144.6C240.48 144.6 239.674 144.199 238.665 142.812L237.048 143.988C238.172 145.535 239.499 146.6 241.056 146.6V144.6ZM238.72 142.896C237.819 141.351 237.456 140.203 237.456 139.4H235.456C235.456 140.73 236.027 142.249 236.992 143.904L238.72 142.896ZM237.456 139.4C237.456 138.622 237.804 137.995 238.742 137.474L237.771 135.726C236.308 136.538 235.456 137.778 235.456 139.4H237.456ZM238.783 137.45L291.383 104.85L290.329 103.15L237.729 135.75L238.783 137.45ZM291.383 103.15L238.783 70.55L237.729 72.25L290.329 104.85L291.383 103.15ZM238.742 70.5258C237.754 69.9768 237.456 69.3967 237.456 68.8H235.456C235.456 70.3366 236.359 71.4899 237.771 72.2742L238.742 70.5258ZM237.456 68.8C237.456 67.8574 237.825 66.7112 238.7 65.3369L237.013 64.2631C236.021 65.8221 235.456 67.3426 235.456 68.8H237.456ZM238.688 65.3547C239.715 63.8151 240.52 63.4 241.056 63.4V61.4C239.459 61.4 238.131 62.5849 237.024 64.2453L238.688 65.3547ZM241.056 63.4C241.997 63.4 242.772 63.576 243.409 63.8944L244.303 62.1056C243.34 61.624 242.249 61.4 241.056 61.4V63.4ZM243.32 63.8439L301.52 100.844L302.593 99.1561L244.393 62.1561L243.32 63.8439ZM301.502 100.832C302.859 101.737 303.456 102.842 303.456 104.2H305.456C305.456 102.091 304.453 100.396 302.611 99.1679L301.502 100.832ZM303.456 104.2C303.456 105.395 302.888 106.444 301.502 107.368L302.611 109.032C304.425 107.823 305.456 106.205 305.456 104.2H303.456ZM301.522 107.355L243.322 144.155L244.391 145.845L302.591 109.045L301.522 107.355Z" fill="#8A25B1"/>
<defs>
<linearGradient id="paint0_linear" x1="153" y1="-16" x2="153" y2="204" gradientUnits="userSpaceOnUse">
<stop stop-color="#8A25B1"/>
<stop offset="1" stop-color="white" stop-opacity="0"/>
</linearGradient>
</defs>
</svg>
